{"asset":{"version":"2.0","generator":"Unity 2021.3.3f1 glTFast 4.9.0"},"nodes":[{"name":"Vegetarlasagne","mesh":0,"translation":[-2.5,300,0]}],"extensionsRequired":["KHR_texture_transform"],"extensionsUsed":["KHR_texture_transform"],"buffers":[{"uri":"Vegetarlasagne.bin","byteLength":444024}],"bufferViews":[{"buffer":0,"byteLength":21144},{"buffer":0,"byteLength":422880,"byteOffset":21144,"byteStride":60}],"accessors":[{"bufferView":1,"componentType":5126,"count":7048,"type":"VEC3","max":[1.86773682,103.13942,0],"min":[-310.466522,-144.553329,0]},{"bufferView":1,"componentType":5126,"count":7048,"type":"VEC3","byteOffset":12},{"bufferView":1,"componentType":5126,"count":7048,"type":"VEC4","byteOffset":24},{"bufferView":1,"componentType":5121,"count":7048,"type":"VEC4","byteOffset":40},{"bufferView":1,"componentType":5126,"count":7048,"type":"VEC2","byteOffset":44},{"bufferView":1,"componentType":5126,"count":7048,"type":"VEC2","byteOffset":52},{"bufferView":0,"componentType":5123,"count":10572,"type":"SCALAR"}],"images":[{"name":"LiberationSans SDF.png","uri":"LiberationSans SDF.png","mimeType":"image/png"}],"materials":[{"name":"LiberationSans SDF Material","pbrMetallicRoughness":{"metallicFactor":0,"baseColorTexture":{"index":0,"extensions":{"KHR_texture_transform":{"offset":[0,1],"scale":[1,-1]}}}},"alphaMode":"BLEND"}],"meshes":[{"name":"TextMeshPro Mesh","primitives":[{"attributes":{"POSITION":0,"NORMAL":1,"TANGENT":2,"TEXCOORD_0":4,"TEXCOORD_1":5,"COLOR_0":3},"indices":6,"material":0}]}],"scene":0,"scenes":[{"name":"Vegetarlasagne","nodes":[0]}],"textures":[{"source":0}]}